PathFileType	4	(X/Y/Z)	/Users/itak/Documents/Research/Walk-IL/dataset/trc/00511_00183.trc
DataRate	CameraRate	NumFrames	NumMarkers	Units	OrigDataRate	OrigDataStartFrame	OrigNumFrames
100.000000	100.000000	4	53	mm	100.000000	96	386
Frame#	Time	RPSI			LPSI			L3			STRN			T10			C7			CLAV			RBAK			LBAK			LSHO			LUPA			LAEL			LAOL			LWTS			LWPS			LFRA			LIFD			LHPS			LHTS			RSHO			RUPA			RAEL			RAOL			RWTS			RWPS			RFRA			RIFD			RHTS			RHPS			RBHD			LFHD			RFHD			LBHD			LHIP			RHIP			RASI			LASI			LKNE			LTHI			LANK			LTIP			LTOE			LMT1			LMT5			LHEE			RKNE			RTHI			RANK			RTIP			RTOE			RMT1			RMT5			RHEE			
		X1	Y1	Z1	X2	Y2	Z2	X3	Y3	Z3	X4	Y4	Z4	X5	Y5	Z5	X6	Y6	Z6	X7	Y7	Z7	X8	Y8	Z8	X9	Y9	Z9	X10	Y10	Z10	X11	Y11	Z11	X12	Y12	Z12	X13	Y13	Z13	X14	Y14	Z14	X15	Y15	Z15	X16	Y16	Z16	X17	Y17	Z17	X18	Y18	Z18	X19	Y19	Z19	X20	Y20	Z20	X21	Y21	Z21	X22	Y22	Z22	X23	Y23	Z23	X24	Y24	Z24	X25	Y25	Z25	X26	Y26	Z26	X27	Y27	Z27	X28	Y28	Z28	X29	Y29	Z29	X30	Y30	Z30	X31	Y31	Z31	X32	Y32	Z32	X33	Y33	Z33	X34	Y34	Z34	X35	Y35	Z35	X36	Y36	Z36	X37	Y37	Z37	X38	Y38	Z38	X39	Y39	Z39	X40	Y40	Z40	X41	Y41	Z41	X42	Y42	Z42	X43	Y43	Z43	X44	Y44	Z44	X45	Y45	Z45	X46	Y46	Z46	X47	Y47	Z47	X48	Y48	Z48	X49	Y49	Z49	X50	Y50	Z50	X51	Y51	Z51	X52	Y52	Z52	X53	Y53	Z53	

97	0.96	-1045.010498046875	963.8372802734375	-470.0340881347656	-970.6942138671875	970.10791015625	-568.5548095703125	-1002.115051269531	1034.829833984375	-520.9780883789062	-784.5282592773438	1167.024291992188	-415.9396057128906	-1001.135192871094	1141.753051757812	-516.49267578125	-931.0281372070312	1362.336181640625	-484.6990051269531	-802.560791015625	1265.824096679688	-427.0123291015625	-1023.114440917969	1249.060913085938	-430.5699462890625	-921.7610473632812	1309.990112304688	-574.7149658203125	-802.34716796875	1348.711547851562	-600.541259765625	-806.4570922851562	1229.678588867188	-674.1270141601562	-814.1185913085938	1023.1796875	-709.5899658203125	-909.8975830078125	1020.072998046875	-681.28662109375	-724.5621948242188	860.4195556640625	-610.4856567382812	-765.70166015625	816.5205688476562	-683.4360961914062	-787.9636840820312	953.634521484375	-695.05810546875	-729.3733520507812	704.5613403320312	-582.556396484375	-745.2642822265625	765.0264282226562	-664.9968872070312	-704.4124145507812	779.7415771484375	-614.1012573242188	-939.4459228515625	1355.36865234375	-327.5274963378906	-984.0797119140625	1291.63427734375	-282.4943542480469	-1005.873352050781	1026.783569335938	-242.8602600097656	-1050.776000976562	1007.029663085938	-288.2790832519531	-841.6476440429688	883.7288818359375	-253.6129608154297	-909.8411865234375	836.1644287109375	-215.6576385498047	-992.8410034179688	977.7360229492188	-235.1461334228516	-788.1119995117188	734.2568359375	-241.4900817871094	-798.9186401367188	801.3931274414062	-220.1118927001953	-863.74658203125	776.336669921875	-206.7765350341797	-950.0601196289062	1495.49462890625	-401.5381164550781	-777.60302734375	1579.975708007812	-459.8430480957031	-844.3312377929688	1568.208374023438	-351.6818542480469	-879.0297241210938	1503.873046875	-543.943115234375	-818.5361328125	878.7902221679688	-624.69287109375	-1038.949462890625	848.7039794921875	-314.5846862792969	-917.8035278320312	884.122802734375	-316.111572265625	-774.6176147460938	896.2308349609375	-513.53173828125	-894.101318359375	460.17333984375	-628.2504272460938	-846.0252685546875	614.2042846679688	-624.9511108398438	-1028.177856445312	42.31081771850586	-662.6246337890625	-938.837890625	318.4173583984375	-651.0851440429688	-897.0263671875	46.70117568969727	-505.6308288574219	-979.998779296875	47.31194305419922	-518.7796630859375	-931.3133544921875	43.67801666259766	-609.3324584960938	-1102.758178710938	32.33164596557617	-641.421630859375	-945.5528564453125	468.7230224609375	-338.7878112792969	-1001.495727539062	718.4368286132812	-306.3466796875	-1145.827026367188	98.45806121826172	-432.2885437011719	-975.330810546875	334.2088317871094	-352.3145141601562	-969.3253784179688	44.12798690795898	-360.1879272460938	-997.7266845703125	51.39302062988281	-427.6121520996094	-1067.111450195312	65.42805480957031	-360.8929443359375	-1165.73974609375	101.8715209960938	-500.2187805175781	
98	0.97	-1042.205810546875	962.4660034179688	-468.5584716796875	-967.6214599609375	969.2339477539062	-566.76416015625	-998.3785400390625	1034.235473632812	-519.2716064453125	-780.5865478515625	1165.05126953125	-413.7162170410156	-996.578125	1140.772094726562	-514.5764770507812	-925.88623046875	1361.065063476562	-482.9849548339844	-798.1676025390625	1263.871704101562	-424.9989929199219	-1018.549560546875	1248.327392578125	-428.8655700683594	-916.7045288085938	1308.588012695312	-572.9622802734375	-797.0940551757812	1346.7490234375	-598.4585571289062	-801.3737182617188	1227.890380859375	-672.23291015625	-809.2337646484375	1022.486877441406	-707.2101440429688	-905.5532836914062	1018.548217773438	-680.7576904296875	-717.4346923828125	864.1349487304688	-603.814697265625	-755.8050537109375	817.6071166992188	-676.5988159179688	-781.6123657226562	954.324462890625	-691.2533569335938	-719.1541748046875	709.0454711914062	-572.1674194335938	-734.4529418945312	767.1294555664062	-656.6758422851562	-695.0142822265625	783.9461669921875	-605.2742919921875	-934.4371337890625	1354.427368164062	-325.8411560058594	-979.3026123046875	1290.8212890625	-280.9111022949219	-1001.767517089844	1026.369262695312	-241.9449005126953	-1047.007690429688	1006.46484375	-287.0119323730469	-837.2111206054688	884.01611328125	-253.5346069335938	-904.7804565429688	835.587890625	-215.5372161865234	-988.5223999023438	977.4197387695312	-234.3127746582031	-782.7581787109375	734.6901245117188	-245.1518402099609	-793.6864013671875	801.284423828125	-222.0764007568359	-858.1976318359375	775.6145629882812	-208.4367523193359	-944.7197265625	1494.181518554688	-400.1491394042969	-771.7918701171875	1577.993774414062	-457.9586791992188	-838.8810424804688	1566.4619140625	-349.9709167480469	-873.32470703125	1502.32470703125	-542.3670654296875	-815.2887573242188	877.4256591796875	-622.52099609375	-1036.444458007812	847.6836547851562	-312.6218872070312	-915.7738037109375	882.7250366210938	-314.2525024414062	-771.491943359375	894.233642578125	-511.1717834472656	-893.7816162109375	459.5547180175781	-629.2933349609375	-844.7968139648438	613.1199951171875	-624.4932250976562	-1028.201049804688	42.06307983398438	-662.9730224609375	-939.0107421875	318.3767395019531	-652.7348022460938	-896.8359375	47.04995727539062	-506.3435363769531	-979.7706298828125	47.65084457397461	-519.2877197265625	-931.1633911132812	43.26453399658203	-609.89599609375	-1102.90380859375	32.28085327148438	-641.580078125	-934.5377807617188	469.2926940917969	-332.9508056640625	-996.7777709960938	718.1219482421875	-303.517578125	-1141.460693359375	105.5011291503906	-431.8760070800781	-965.7487182617188	336.3204040527344	-347.7486572265625	-967.0947265625	44.81882476806641	-359.9523620605469	-994.653076171875	54.13205718994141	-427.3069152832031	-1064.20361328125	68.55879974365234	-360.7708129882812	-1160.6640625	110.7706146240234	-499.8412780761719	
99	0.98	-1039.156494140625	961.0872192382812	-466.9005737304688	-964.3513793945312	968.26220703125	-564.8323364257812	-994.560791015625	1033.40576171875	-517.4993286132812	-776.5362548828125	1163.049194335938	-411.359375	-991.9028930664062	1139.66357421875	-512.5693359375	-920.6956787109375	1359.718139648438	-481.1376647949219	-793.6734619140625	1261.905639648438	-422.8280029296875	-1013.94287109375	1247.441528320312	-427.1355895996094	-911.587890625	1307.1015625	-571.0762939453125	-791.8030395507812	1344.732788085938	-596.2713623046875	-796.1929321289062	1225.952514648438	-670.1402587890625	-804.0407104492188	1021.731140136719	-704.4696655273438	-900.8641967773438	1016.772766113281	-679.90966796875	-710.0120239257812	868.1287841796875	-596.7551879882812	-745.7462158203125	818.772705078125	-668.9473876953125	-775.011962890625	954.9714965820312	-687.0277709960938	-708.4130859375	714.0991821289062	-560.9452514648438	-723.42626953125	769.4873657226562	-647.4703369140625	-685.2646484375	788.5740966796875	-595.8952026367188	-929.51708984375	1353.312622070312	-323.9922180175781	-974.66162109375	1289.807983398438	-279.282958984375	-998.1392822265625	1025.792236328125	-241.0595092773438	-1043.578247070312	1005.755554199219	-285.9105834960938	-833.280517578125	883.9600219726562	-253.0098876953125	-900.3776245117188	834.7733154296875	-215.148193359375	-984.7354125976562	976.9111938476562	-233.4558258056641	-778.3692016601562	734.6005859375	-248.9306030273438	-789.2196655273438	800.5866088867188	-223.8628082275391	-853.525634765625	774.5067749023438	-209.9534301757812	-939.2611083984375	1492.917236328125	-398.6015930175781	-765.82177734375	1575.9423828125	-455.9476318359375	-833.2654418945312	1564.709228515625	-348.1238098144531	-867.5072021484375	1500.733764648438	-540.638916015625	-811.937744140625	876.0440063476562	-620.3477172851562	-1033.630859375	846.6528930664062	-310.4907836914062	-913.3244018554688	881.319580078125	-312.2885437011719	-768.2366333007812	892.2079467773438	-508.8343505859375	-893.2626953125	458.9178771972656	-629.9520263671875	-843.3807373046875	612.0046997070312	-623.8253784179688	-1028.214477539062	41.85224533081055	-663.2908325195312	-938.987060546875	318.2524108886719	-653.990478515625	-896.6904296875	47.31704711914062	-506.9337768554688	-979.5843505859375	47.91851043701172	-519.72607421875	-931.0032958984375	42.88714218139648	-610.3844604492188	-1103.03955078125	32.24937057495117	-641.7249145507812	-923.6453247070312	470.0699462890625	-326.81689453125	-991.7913818359375	717.9204711914062	-300.4445495605469	-1136.583618164062	112.6556396484375	-431.2590942382812	-956.1498413085938	338.6269836425781	-342.9521484375	-964.2587890625	45.99547576904297	-359.7484741210938	-991.0240478515625	57.40624618530273	-426.9815368652344	-1060.736083984375	72.01278686523438	-360.5643920898438	-1155.08447265625	119.7441482543945	-499.2159729003906	
100	0.99	-1035.888671875	959.7032470703125	-465.0311279296875	-960.88720703125	967.2178344726562	-562.7239990234375	-990.70166015625	1032.405395507812	-515.6328735351562	-772.3663330078125	1161.057861328125	-408.8937072753906	-987.140625	1138.475341796875	-510.4519348144531	-915.455810546875	1358.338012695312	-479.14208984375	-789.051513671875	1259.967895507812	-420.5037231445312	-1009.270812988281	1246.4501953125	-425.3377075195312	-906.4203491210938	1305.576049804688	-569.0450439453125	-786.464599609375	1342.698120117188	-593.9873657226562	-790.9295043945312	1223.891723632812	-667.8442993164062	-798.5197143554688	1020.884460449219	-701.3548583984375	-895.805419921875	1014.743530273438	-678.6763916015625	-702.2958984375	872.390380859375	-589.2954711914062	-735.5648193359375	820.04248046875	-660.4771118164062	-768.1641235351562	955.5390625	-682.3564453125	-697.2233276367188	719.7542114257812	-548.9165649414062	-712.2225341796875	772.1179809570312	-637.3887939453125	-675.2144775390625	793.6195068359375	-585.9667358398438	-924.658203125	1352.05908203125	-321.9636535644531	-970.1277465820312	1288.62646484375	-277.589599609375	-995.006591796875	1025.055786132812	-240.1775665283203	-1040.48828125	1004.944458007812	-284.9764099121094	-829.9204711914062	883.50732421875	-252.0002593994141	-896.7547607421875	833.7070922851562	-214.4924163818359	-981.5233154296875	976.2010498046875	-232.5624847412109	-775.0791625976562	733.9766235351562	-252.5608673095703	-785.6375122070312	799.2809448242188	-225.3146057128906	-849.870849609375	773.0125732421875	-211.2380981445312	-933.6887817382812	1491.700927734375	-396.8782348632812	-759.7225341796875	1573.89013671875	-453.7734680175781	-827.5062866210938	1562.976318359375	-346.1109313964844	-861.5772094726562	1499.15185546875	-538.7382202148438	-808.507080078125	874.6780395507812	-618.1908569335938	-1030.48486328125	845.607177734375	-308.1724853515625	-910.4090576171875	879.933349609375	-310.2160034179688	-764.8360595703125	890.216796875	-506.5270385742188	-892.49853515625	458.2756042480469	-630.195068359375	-841.7376098632812	610.8980102539062	-622.9530029296875	-1028.222290039062	41.68928146362305	-663.5550537109375	-938.7438354492188	318.0579833984375	-654.7972412109375	-896.5944213867188	47.48930358886719	-507.3700256347656	-979.4424438476562	48.10260772705078	-520.07080078125	-930.8385620117188	42.56794738769531	-610.7694702148438	-1103.154296875	32.23739242553711	-641.8458862304688	-912.9341430664062	471.027587890625	-320.4889221191406	-986.5374755859375	717.8092041015625	-297.1445617675781	-1131.193237304688	119.8297805786133	-430.389404296875	-946.5708618164062	341.1021728515625	-337.9576110839844	-960.7796630859375	47.69987487792969	-359.4920349121094	-986.83447265625	61.16748428344727	-426.5590515136719	-1056.681518554688	75.77577972412109	-360.1998291015625	-1149.011840820312	128.6638946533203	-498.2963256835938	
